<svg width="64" height="64" viewBox="0 0 64 64" fill="none" xmlns="http://www.w3.org/2000/svg">
<path d="M15.9998 46.6667V32C15.9998 30.5273 17.1937 29.3334 18.6665 29.3334H45.3332C46.8059 29.3334 47.9998 30.5273 47.9998 32V46.6667C47.9998 50.3486 45.0151 53.3334 41.3332 53.3334H22.6665C18.9846 53.3334 15.9998 50.3486 15.9998 46.6667Z" fill="#5BBBFC"/>
<path fill-rule="evenodd" clip-rule="evenodd" d="M52.8332 42.6667C52.465 42.6667 52.1665 42.3682 52.1665 42V27.3334C52.1665 26.9652 52.465 26.6667 52.8332 26.6667H53.8332C54.2014 26.6667 54.4998 26.9652 54.4998 27.3334V42C54.4998 42.3682 54.2014 42.6667 53.8332 42.6667H52.8332Z" fill="#7252CC"/>
<path d="M8.81478 25.597L30.7385 11.5901C31.6191 11.0275 32.747 11.031 33.624 11.5991L55.2473 25.606C56.8607 26.6511 56.8718 29.0081 55.2684 30.0684L33.645 44.3672C32.7582 44.9536 31.6078 44.9572 30.7173 44.3764L8.79373 30.0778C7.17146 29.0197 7.18264 26.6398 8.81478 25.597Z" fill="#D8A6FF"/>
<path d="M48.0001 34.8746L33.645 44.3672C32.7582 44.9536 31.6078 44.9572 30.7173 44.3764L16.0001 34.778V29.3332C16.0001 27.8604 17.194 26.6665 18.6667 26.6665H45.3334C46.8062 26.6665 48.0001 27.8604 48.0001 29.3332V34.8746Z" fill="#FAF8F5"/>
</svg>
