<svg width="64" height="64" viewBox="0 0 64 64" fill="none" xmlns="http://www.w3.org/2000/svg">
<path d="M42.6667 8L10.6667 8C9.19391 8 8 9.19391 8 10.6667L8 43.8045C8 44.3866 8.69374 44.6892 9.1203 44.2931L15.848 38.0459C16.3413 37.5879 16.9895 37.3333 17.6626 37.3333H42.6667C44.1394 37.3333 45.3333 36.1394 45.3333 34.6667V10.6667C45.3333 9.19391 44.1394 8 42.6667 8Z" fill="#5BBBFC"/>
<path d="M21.3334 18.6667L53.3334 18.6667C54.8061 18.6667 56 19.8606 56 21.3334V54.8033C56 55.3256 55.4266 55.6451 54.9824 55.3701L48.0296 51.066C47.608 50.805 47.1219 50.6667 46.626 50.6667H21.3334C19.8606 50.6667 18.6667 49.4728 18.6667 48L18.6667 21.3334C18.6667 19.8606 19.8606 18.6667 21.3334 18.6667Z" fill="#FFD140"/>
<path d="M45.3333 18.6667L21.3334 18.6667C19.8606 18.6667 18.6667 19.8606 18.6667 21.3334L18.6667 37.3333L42.6667 37.3333C44.1394 37.3333 45.3333 36.1394 45.3333 34.6667V18.6667Z" fill="#FAF8F5"/>
<path d="M26.6667 28C26.6667 29.1046 25.7712 30 24.6667 30C23.5621 30 22.6667 29.1046 22.6667 28C22.6667 26.8954 23.5621 26 24.6667 26C25.7712 26 26.6667 26.8954 26.6667 28Z" fill="#001C64"/>
<path d="M34 28C34 29.1046 33.1046 30 32 30C30.8954 30 30 29.1046 30 28C30 26.8954 30.8954 26 32 26C33.1046 26 34 26.8954 34 28Z" fill="#001C64"/>
<path d="M39.3333 30C40.4379 30 41.3333 29.1046 41.3333 28C41.3333 26.8954 40.4379 26 39.3333 26C38.2288 26 37.3333 26.8954 37.3333 28C37.3333 29.1046 38.2288 30 39.3333 30Z" fill="#001C64"/>
</svg>
