<svg width="64" height="64" viewBox="0 0 64 64" fill="none" xmlns="http://www.w3.org/2000/svg">
<path d="M46.4659 11.4566C46.6711 9.79832 45.4932 8.28768 43.8349 8.08248C42.1766 7.87728 40.666 9.05522 40.4608 10.7135L40.2796 12.1774C40.4627 10.5339 39.29 9.04433 37.6442 8.84067C35.986 8.63547 34.4753 9.81341 34.2701 11.4717L34.2608 11.5473L34.2596 11.5472L33.8919 13.6748C33.8748 13.5543 33.8505 13.4358 33.8194 13.3198C33.5097 12.165 32.5272 11.256 31.2677 11.1001C29.6094 10.8949 28.0988 12.0729 27.8936 13.7311L26.8343 22.2906C27.1601 21.6743 27.6995 21.1669 28.399 20.8912C29.9536 20.2786 31.7104 21.0422 32.3231 22.5967L39.2563 40.1889C39.9885 42.0469 40.2292 43.9771 40.041 45.8358C42.9836 45.2254 45.5804 43.5345 47.3361 41.1492L47.3493 41.1335L56.1336 30.732C57.2117 29.4554 57.0508 27.5466 55.7742 26.4685C54.4976 25.3904 52.5888 25.5513 51.5107 26.8279L50.515 28.0069L52.0995 15.2023C52.3047 13.544 51.1267 12.0334 49.4685 11.8282C47.8102 11.623 46.2996 12.8009 46.0944 14.4592L46.4659 11.4566Z" fill="#DD7F57"/>
<path d="M40.041 45.8358C38.7764 46.0981 37.448 46.161 36.0951 45.9936C29.462 45.1728 24.7503 39.1302 25.5711 32.4972L26.8343 22.2906C27.1601 21.6743 27.6995 21.1669 28.399 20.8912C29.9536 20.2786 31.7104 21.0422 32.3231 22.5967L39.2563 40.1889C39.9885 42.0469 40.2292 43.9771 40.041 45.8358Z" fill="#F5F5F5"/>
<path d="M15.4765 21.1058C13.9218 21.7184 13.1581 23.4752 13.7708 25.0299L14.8801 27.8447C14.2675 26.29 12.5107 25.5267 10.956 26.1393C9.40163 26.7519 8.63795 28.5087 9.25058 30.0631L13.9811 42.067L12.7226 41.1738C11.36 40.2067 9.47129 40.5273 8.50449 41.8899C7.53737 43.2526 7.85801 45.1412 9.22064 46.1084L20.3232 53.9879L20.3398 53.9996C23.6217 56.6757 28.2145 57.5478 32.4342 55.8847C36.7945 54.1663 39.5992 50.1978 40.041 45.8358C39.3457 45.98 38.6311 46.0641 37.9039 46.0826C37.3082 46.0976 36.7041 46.0688 36.0951 45.9936C29.462 45.1728 24.7503 39.1302 25.5711 32.4972L26.5914 24.2522L26.5006 24.0393L26.0559 23.0546L25.6132 22.0709L25.5842 22.0003C24.9716 20.4456 23.2148 19.6823 21.6604 20.2949C20.1174 20.903 19.3538 22.638 19.9413 24.1839L19.4003 22.8115C18.7877 21.2568 17.0309 20.4931 15.4765 21.1058Z" fill="#5BBBFC"/>
</svg>
